<?xml version="1.0" standalone="no"?>
<!DOCTYPE svg PUBLIC "-//W3C//DTD SVG 20010904//EN"
 "http://www.w3.org/TR/2001/REC-SVG-20010904/DTD/svg10.dtd">
<svg version="1.0" xmlns="http://www.w3.org/2000/svg"
 width="1200.000000pt" height="1200.000000pt" viewBox="0 0 300.000000 300.000000"
 preserveAspectRatio="xMidYMid meet">
<metadata>
Created by potrace 1.16, written by Peter Selinger 2001-2019
</metadata>
<g transform="translate(0.000000,300.000000) scale(0.100000,-0.100000)"
fill="#000000" stroke="none">
<path d="M0 1500 l0 -1500 1500 0 1500 0 0 1500 0 1500 -1500 0 -1500 0 0
-1500z m2370 1448 c23 -87 30 -114 44 -159 l14 -46 -120 -32 c-67 -18 -124
-28 -128 -24 -5 6 -52 175 -63 227 -2 7 199 71 235 75 4 1 12 -18 18 -41z
m-248 -143 c14 -55 27 -107 27 -116 1 -12 -26 -23 -114 -46 l-115 -29 -11 40
c-5 23 -19 74 -31 114 -12 40 -19 75 -16 77 9 9 202 63 218 61 10 -1 24 -33
42 -101z m-273 -75 c12 -47 24 -92 27 -101 3 -13 -17 -21 -101 -44 -58 -15
-107 -26 -109 -24 -10 10 -56 202 -51 208 11 10 199 58 206 52 3 -3 16 -44 28
-91z m-251 -74 c37 -131 36 -126 18 -126 -7 0 -60 -13 -117 -30 -56 -16 -104
-28 -105 -27 -1 1 -16 55 -32 119 l-30 118 37 9 c119 32 187 49 191 50 4 1 20
-50 38 -113z m857 -43 c15 -60 30 -113 32 -119 3 -9 -226 -78 -234 -70 -4 4
-63 230 -60 232 2 2 216 61 228 63 3 1 19 -47 34 -106z m-1109 -45 c14 -55 23
-102 21 -105 -7 -6 -210 -63 -227 -63 -11 0 -24 34 -46 118 -18 64 -30 119
-28 121 2 2 56 18 121 36 137 37 119 49 159 -107z m849 -37 l30 -119 -115 -30
c-63 -17 -116 -29 -118 -28 -3 3 -50 173 -59 212 -4 19 5 24 109 52 62 17 115
31 118 31 3 1 19 -53 35 -118z m-1136 32 c28 -97 44 -163 40 -168 -9 -9 -229
-63 -232 -57 -9 17 -60 223 -56 227 4 4 207 63 221 64 4 1 16 -29 27 -66z
m878 -100 c17 -65 29 -120 27 -122 -2 -3 -57 -19 -121 -36 l-118 -33 -33 120
c-19 66 -31 122 -28 126 7 7 203 60 226 61 12 1 24 -30 47 -116z m-1142 -9
c13 -49 26 -96 30 -105 5 -13 -15 -21 -102 -46 l-108 -30 -22 74 c-13 42 -25
90 -29 108 -6 33 -5 34 38 45 23 6 70 20 103 30 33 10 61 17 63 15 1 -1 13
-42 27 -91z m-252 -67 c15 -57 29 -110 32 -118 5 -12 -19 -22 -112 -47 -65
-17 -119 -29 -121 -28 -5 5 -62 229 -60 232 3 2 216 61 229 63 4 1 18 -45 32
-102z m1117 -4 l28 -103 -42 -11 c-22 -6 -71 -19 -107 -29 l-67 -18 -28 104
c-15 57 -25 106 -23 108 9 9 176 55 193 53 15 -2 24 -22 46 -104z m840 15 c6
-24 17 -63 25 -88 26 -86 31 -80 -85 -111 -57 -15 -105 -27 -106 -26 -5 7 -54
185 -54 198 0 12 25 23 93 42 50 14 97 26 104 26 7 1 17 -18 23 -41z m-1121
-15 c35 -136 41 -167 34 -173 -4 -4 -52 -18 -105 -33 l-98 -25 -14 51 c-8 29
-21 77 -29 108 l-14 57 91 25 c123 34 123 34 135 -10z m-1126 10 c33 -114 54
-204 48 -207 -11 -7 -213 -57 -216 -54 -4 4 -53 179 -57 202 -3 16 12 23 97
46 124 34 122 34 128 13z m895 -140 c17 -65 28 -121 24 -125 -6 -5 -236 -68
-238 -64 -7 17 -64 239 -62 241 6 5 213 63 229 64 12 1 23 -28 47 -116z m1106
16 c15 -56 23 -105 19 -109 -13 -11 -196 -60 -202 -54 -6 5 -61 208 -58 209
12 6 186 53 198 54 12 1 23 -24 43 -100z m-284 37 c0 -2 13 -53 29 -114 l29
-110 -22 -5 c-11 -2 -62 -16 -112 -30 l-91 -25 -27 98 c-14 54 -28 104 -31
112 -4 11 20 22 102 45 114 33 123 35 123 29z m-1090 -106 c15 -52 30 -106 33
-120 6 -25 4 -26 -116 -56 -67 -18 -123 -31 -124 -30 -7 6 -64 238 -60 242 8
8 211 62 226 61 9 -1 24 -37 41 -97z m-265 -80 c14 -52 28 -103 31 -112 4 -13
-5 -19 -38 -28 -24 -6 -76 -20 -116 -32 -40 -12 -75 -18 -78 -15 -6 5 -65 230
-61 233 11 6 232 58 234 54 1 -3 13 -48 28 -100z m1094 73 c6 -21 20 -69 30
-106 15 -50 17 -69 8 -72 -26 -10 -201 -54 -203 -52 -5 6 -54 188 -54 200 0 9
31 23 93 39 50 14 97 26 104 27 7 0 17 -16 22 -36z m-208 -254 c-10 -9 -222
-61 -228 -56 -9 10 -63 221 -57 226 3 3 55 19 117 36 l112 30 31 -115 c17 -63
28 -118 25 -121z m1069 199 c6 -24 18 -65 26 -92 23 -82 25 -80 -87 -110 -55
-15 -102 -26 -104 -24 -6 6 -55 182 -55 198 0 11 27 23 98 42 53 14 100 26
104 27 4 1 12 -18 18 -41z m-2220 -104 c15 -60 27 -110 27 -110 -1 -1 -52 -15
-113 -31 l-112 -30 -29 113 -29 113 75 20 c131 35 146 38 149 36 2 -2 16 -52
32 -111z m1990 -24 c18 -66 31 -123 27 -126 -9 -9 -230 -63 -238 -59 -7 5 -62
218 -60 232 1 6 203 69 232 72 3 1 21 -53 39 -119z m-1136 -26 c15 -58 26
-107 24 -108 -7 -6 -210 -57 -213 -54 -3 5 -50 191 -50 203 0 7 160 57 206 64
3 1 18 -47 33 -105z m868 -44 c15 -58 28 -110 28 -116 0 -9 -215 -71 -230 -67
-7 3 -61 216 -57 227 3 10 192 65 216 62 9 -1 24 -38 43 -106z m-1128 -18 c14
-54 26 -104 26 -110 0 -6 -19 -16 -42 -22 -24 -6 -51 -14 -61 -17 -17 -4 -17
-3 2 16 23 23 28 56 9 68 -7 4 -13 24 -13 43 0 28 -4 36 -22 38 -31 5 -63 -15
-63 -38 0 -26 12 -25 28 0 7 12 17 18 22 15 15 -9 12 -42 -5 -49 -8 -3 -15
-12 -15 -21 0 -11 6 -14 25 -9 18 4 25 2 25 -9 0 -17 -24 -40 -33 -31 -3 4
-14 4 -23 0 -13 -5 -14 -9 -4 -21 10 -12 7 -16 -15 -25 -15 -6 -29 -9 -31 -7
-7 7 -66 219 -62 223 7 6 182 53 204 53 18 1 25 -12 48 -97z m854 -14 c30
-104 44 -160 40 -162 -2 -2 -48 -14 -103 -28 -55 -15 -107 -29 -115 -32 -12
-5 -21 18 -46 114 l-32 120 37 9 c20 5 68 18 106 29 39 11 75 20 81 21 6 0 21
-32 32 -71z m-1127 20 c6 -24 21 -79 34 -123 l23 -79 -95 -28 c-161 -46 -149
-46 -166 9 -24 76 -52 192 -47 196 4 4 213 63 232 66 4 0 12 -18 19 -41z
m1989 -121 l28 -105 -76 -21 c-146 -39 -139 -39 -152 10 -6 24 -18 70 -27 102
-9 32 -13 61 -9 65 8 7 198 60 204 56 2 -2 17 -50 32 -107z m-1136 28 c9 -33
22 -81 30 -106 l14 -47 -105 -26 c-58 -15 -107 -25 -110 -23 -7 7 -61 202 -58
206 4 3 209 59 212 57 0 0 8 -28 17 -61z m-1104 -61 c15 -60 27 -110 25 -112
-4 -4 -219 -62 -221 -59 -1 1 -15 52 -31 112 l-28 110 110 31 c61 17 111 30
113 29 2 -2 16 -52 32 -111z m1984 -22 c16 -59 31 -112 33 -118 3 -9 -226 -77
-234 -70 -6 5 -62 230 -59 234 4 3 203 58 221 61 6 0 23 -47 39 -107z m-1144
36 c6 -24 20 -72 30 -108 11 -35 18 -66 16 -67 -7 -7 -218 -65 -221 -61 -7 6
-55 191 -55 208 0 11 27 24 93 42 124 36 124 36 137 -14z m-261 -50 c16 -53
52 -200 49 -203 -5 -3 -191 -54 -212 -57 -16 -3 -23 14 -51 112 -22 78 -29
116 -21 119 14 6 209 59 218 60 3 1 11 -14 17 -31z m1134 -70 c14 -57 24 -104
23 -106 -5 -5 -186 -52 -200 -52 -9 0 -23 38 -39 102 -14 57 -24 104 -22 106
6 7 170 51 191 51 19 1 25 -11 47 -101z m-1375 -85 c17 -64 30 -118 29 -119
-1 -1 -49 -14 -106 -28 -57 -15 -108 -29 -115 -32 -7 -3 -22 32 -40 98 -15 57
-30 110 -32 119 -4 13 9 20 58 33 35 9 86 23 113 31 28 7 53 14 56 14 4 1 20
-52 37 -116z m1113 10 l27 -103 -41 -10 c-23 -6 -72 -19 -108 -29 l-67 -19
-27 105 c-15 57 -25 107 -22 109 10 10 172 53 192 51 15 -2 24 -21 46 -104z
m843 10 c8 -27 21 -74 29 -105 l15 -57 -52 -15 c-28 -8 -70 -20 -94 -26 -24
-6 -49 -13 -56 -16 -9 -3 -21 27 -40 101 -16 59 -26 108 -24 110 5 5 178 53
195 54 6 1 18 -20 27 -46z m-1109 -68 c15 -58 25 -108 22 -111 -2 -3 -49 -18
-103 -33 -114 -33 -99 -45 -137 97 l-25 89 107 30 c58 17 106 31 107 32 0 0
13 -46 29 -104z m-1114 -25 c15 -58 24 -108 21 -112 -8 -7 -213 -61 -217 -56
-5 5 -55 199 -55 211 0 12 181 67 209 64 9 -1 24 -39 42 -107z m1973 38 c34
-122 47 -181 39 -189 -4 -4 -58 -21 -120 -37 l-112 -30 -10 31 c-6 18 -21 73
-35 124 l-24 91 76 21 c43 11 93 24 112 30 56 15 58 14 74 -41z m-1108 -91
c17 -62 30 -113 29 -114 -1 -2 -53 -16 -115 -33 -83 -21 -116 -26 -121 -18 -9
14 -61 220 -57 223 9 7 224 62 228 58 2 -2 18 -54 36 -116z m858 -47 c16 -61
26 -113 23 -116 -3 -3 -53 -19 -112 -36 -82 -23 -109 -28 -115 -18 -10 16 -64
220 -59 224 8 6 195 54 214 55 17 1 24 -14 49 -109z m-1130 -12 c14 -57 26
-108 26 -114 0 -14 -210 -68 -220 -57 -7 8 -55 188 -55 207 0 8 171 60 211 65
6 0 23 -45 38 -101z m861 -58 c15 -61 26 -113 23 -115 -8 -9 -199 -56 -210
-53 -10 4 -70 209 -63 216 3 3 203 60 216 61 4 1 19 -49 34 -109z m-1124 -11
c15 -52 28 -101 28 -110 1 -13 -24 -23 -106 -43 -58 -15 -109 -23 -113 -19
-12 14 -62 204 -55 211 8 9 196 60 209 57 6 0 22 -44 37 -96z m1993 -31 c16
-62 30 -117 32 -123 4 -9 -235 -79 -243 -71 -5 5 -62 219 -63 232 0 9 197 70
235 73 6 1 23 -50 39 -111z m-1138 -5 c12 -45 25 -95 29 -111 l6 -30 -82 -22
c-45 -12 -96 -24 -113 -27 l-31 -5 -28 108 c-15 58 -26 109 -24 111 3 2 46 15
98 29 51 13 95 27 98 30 14 13 27 -10 47 -83z m-1136 25 c6 -24 20 -72 31
-107 10 -35 19 -67 19 -71 0 -7 -194 -60 -218 -60 -12 0 -67 208 -58 218 6 5
172 54 208 61 4 0 12 -18 18 -41z m1994 -30 c28 -99 49 -189 44 -193 -9 -9
-232 -64 -237 -59 -3 3 -20 58 -37 122 l-31 117 116 32 c64 17 119 32 123 32
4 1 14 -23 22 -51z m-1108 -91 c21 -78 27 -114 20 -119 -7 -3 -58 -18 -115
-33 -80 -20 -106 -23 -112 -14 -9 15 -61 220 -57 224 7 5 195 53 213 54 17 1
24 -15 51 -112z m848 -53 c15 -58 27 -106 25 -108 -12 -10 -204 -54 -210 -48
-8 9 -62 203 -57 206 4 3 189 53 203 55 6 0 23 -47 39 -105z m-1113 -14 c16
-58 27 -109 26 -114 -3 -9 -133 -48 -202 -62 l-30 -6 -29 116 c-16 64 -27 118
-25 120 8 7 204 54 218 53 9 -1 24 -40 42 -107z m858 -65 l28 -105 -36 -9
c-20 -6 -71 -19 -113 -29 l-78 -20 -11 42 c-6 22 -19 72 -30 110 -10 38 -18
71 -16 72 10 9 223 59 225 52 2 -4 16 -55 31 -113z m-1125 -11 c15 -58 25
-108 23 -110 -2 -3 -52 -18 -111 -33 -75 -20 -108 -26 -111 -18 -16 49 -55
210 -53 213 7 6 182 53 204 53 17 1 24 -13 48 -105z m850 24 c8 -29 23 -85 34
-124 l19 -72 -120 -31 c-66 -18 -122 -30 -124 -27 -8 7 -63 208 -63 227 0 12
28 24 113 46 61 17 115 31 119 32 4 0 14 -23 22 -51z m1124 -49 c12 -47 24
-93 27 -101 5 -12 -16 -21 -100 -43 -58 -16 -107 -26 -110 -24 -10 11 -56 201
-50 207 11 11 200 59 206 53 3 -3 16 -45 27 -92z m-2229 -31 c17 -62 31 -118
31 -124 0 -11 -227 -77 -240 -69 -9 6 -65 233 -59 239 5 5 210 63 230 65 4 1
21 -50 38 -111z m1976 -35 c15 -60 29 -113 32 -118 2 -6 -44 -23 -101 -38 -58
-15 -111 -30 -119 -33 -10 -3 -21 25 -45 113 -17 65 -29 119 -27 121 3 4 204
59 221 61 6 0 24 -47 39 -106z m-1122 -17 c15 -57 27 -110 27 -118 0 -9 -18
-19 -47 -26 -27 -7 -78 -20 -114 -31 l-66 -19 -33 115 c-17 63 -29 117 -26
121 6 5 200 60 221 61 6 1 23 -46 38 -103z m873 -173 c-11 -11 -199 -53 -206
-46 -10 12 -60 196 -55 202 3 2 51 17 108 31 l102 27 28 -105 c16 -57 26 -106
23 -109z m-1146 100 c14 -54 26 -103 28 -109 3 -10 -204 -72 -212 -63 -8 10
-55 204 -50 208 5 5 183 57 205 60 3 1 16 -43 29 -96z m844 40 c49 -176 59
-213 55 -217 -2 -2 -55 -18 -117 -34 l-113 -31 -8 22 c-16 43 -53 208 -48 213
4 4 198 60 219 63 4 1 9 -7 12 -16z m-1099 -83 c10 -41 24 -93 32 -114 7 -22
12 -41 10 -42 -7 -7 -239 -65 -243 -61 -9 9 -64 221 -60 232 2 7 17 15 33 19
15 3 66 17 113 30 47 13 88 21 91 17 4 -3 14 -40 24 -81z m1959 33 c27 -95 57
-216 53 -219 -8 -8 -222 -62 -228 -58 -9 5 -63 224 -56 230 4 4 189 57 219 63
4 0 9 -7 12 -16z m-1088 -123 l31 -120 -31 -8 c-153 -43 -208 -54 -215 -46
-13 15 -64 224 -57 232 9 9 194 60 221 61 17 1 24 -15 51 -119z m-1121 -30
c22 -82 25 -104 14 -110 -20 -13 -219 -61 -228 -55 -5 2 -11 15 -14 27 -2 13
-16 65 -30 115 l-26 93 52 15 c29 8 84 23 122 33 82 22 70 35 110 -118z m1969
-6 c14 -56 28 -108 31 -116 4 -10 -24 -22 -111 -47 -64 -17 -117 -31 -119 -29
-2 2 -15 48 -30 103 -15 55 -29 107 -32 116 -4 13 17 22 114 46 65 16 119 29
120 29 1 -1 13 -47 27 -102z m-1115 -40 l28 -110 -101 -28 c-55 -15 -108 -30
-117 -32 -13 -4 -23 18 -49 111 -17 64 -30 118 -28 120 9 10 224 62 230 56 4
-4 21 -56 37 -117z m857 -48 l30 -114 -115 -31 c-63 -16 -116 -29 -118 -27 -4
4 -63 210 -63 222 0 10 174 61 215 63 18 1 25 -14 51 -113z m-1147 72 c24 -76
54 -198 50 -203 -3 -2 -54 -17 -114 -34 -80 -21 -112 -26 -117 -18 -7 12 -43
141 -54 192 l-6 31 109 31 c59 17 111 32 115 32 3 1 11 -14 17 -31z m-259 -80
c6 -24 20 -76 31 -117 11 -40 18 -76 15 -78 -5 -5 -229 -63 -232 -60 -1 1 -14
48 -28 103 -14 56 -29 109 -32 118 -4 11 0 16 12 17 11 0 62 13 114 29 52 15
98 29 102 29 4 1 12 -18 18 -41z m1132 -60 c15 -57 25 -104 23 -106 -9 -9
-201 -59 -207 -54 -8 8 -61 202 -56 207 5 5 182 53 198 54 11 1 22 -28 42
-101z m-262 -75 c23 -90 25 -103 11 -107 -99 -30 -195 -56 -197 -53 -5 4 -54
190 -54 203 0 11 163 63 194 60 16 -1 24 -20 46 -103z m-1124 10 c41 -150 42
-138 -13 -150 -26 -7 -57 -15 -68 -19 -18 -7 -18 -6 2 20 32 40 39 90 19 121
-31 47 -96 23 -96 -34 0 -35 22 -55 50 -46 26 8 26 -5 -1 -33 -11 -12 -18 -26
-15 -31 5 -8 -63 -27 -68 -19 -7 10 -49 177 -50 198 -1 23 5 27 99 52 55 14
104 25 109 24 6 -1 20 -39 32 -83z m848 30 c15 -49 56 -209 56 -219 0 -6 -46
-23 -103 -37 -57 -15 -111 -29 -120 -33 -10 -3 -19 -1 -21 7 -14 46 -65 233
-63 235 5 4 214 62 229 63 9 0 19 -7 22 -16z m-939 -84 c0 -15 -7 -25 -17 -27
-13 -3 -18 3 -18 21 0 13 3 27 7 31 13 12 28 -1 28 -25z m697 -66 c15 -54 30
-109 33 -123 6 -24 3 -26 -97 -52 -57 -15 -112 -30 -123 -33 -19 -6 -24 4 -53
116 -17 68 -30 124 -29 125 5 4 214 62 227 63 12 1 23 -25 42 -96z m-279 -50
c9 -38 23 -89 31 -114 l14 -46 -114 -30 -114 -29 -15 50 c-26 95 -44 170 -41
174 3 2 199 58 217 61 3 1 13 -29 22 -66z m-274 -50 c47 -180 47 -183 27 -183
-8 0 -53 -11 -101 -25 -48 -14 -89 -24 -92 -22 -6 6 -53 180 -53 197 0 11 27
24 93 42 50 15 97 27 104 27 7 1 17 -16 22 -36z"/>
<path d="M2239 2872 c-16 -14 -20 -24 -15 -38 8 -18 9 -18 19 4 5 12 16 22 24
22 18 0 17 -39 -2 -46 -24 -10 -18 -36 8 -32 16 2 22 -2 22 -17 0 -14 -8 -21
-25 -23 -34 -5 -48 -20 -26 -28 23 -9 74 14 81 37 7 21 -2 59 -14 59 -5 0 -6
11 -3 25 5 27 -12 55 -33 55 -7 0 -23 -8 -36 -18z"/>
<path d="M1723 2754 c-33 -14 -41 -36 -24 -63 5 -8 16 -11 29 -7 15 5 24 1 32
-14 6 -11 8 -25 5 -30 -8 -13 -35 -13 -35 0 0 6 -4 10 -10 10 -18 0 -10 -29
10 -35 31 -10 60 12 60 45 0 33 -25 52 -58 43 -15 -4 -22 -1 -22 10 0 8 11 18
25 21 14 4 25 13 25 21 0 8 -1 15 -2 14 -2 0 -18 -7 -35 -15z"/>
<path d="M1431 2649 c-16 -46 -14 -52 14 -47 18 4 26 0 30 -13 9 -29 26 -23
19 6 -6 24 2 31 29 26 5 -1 7 4 5 11 -3 7 -15 12 -26 10 -12 -2 -22 2 -22 7 0
6 -4 11 -10 11 -5 0 -10 -9 -10 -20 0 -11 -5 -20 -11 -20 -6 0 -8 7 -5 15 3 8
9 22 12 30 3 8 2 15 -4 15 -6 0 -15 -14 -21 -31z"/>
<path d="M2336 2632 c-2 -4 -14 -32 -26 -61 l-21 -54 36 6 c33 5 35 4 29 -15
-5 -17 -3 -20 11 -15 9 4 21 7 27 7 7 0 6 5 -1 14 -6 7 -9 21 -5 30 3 9 1 16
-5 16 -5 0 -15 18 -21 40 -11 41 -15 46 -24 32z m3 -86 c-13 -15 -19 -3 -12
24 6 22 7 22 14 4 3 -10 3 -23 -2 -28z"/>
<path d="M2050 2530 c-22 -22 -24 -37 -11 -73 19 -49 91 -42 91 8 0 32 -32 50
-61 34 -17 -9 -20 -8 -17 3 2 7 14 17 26 23 12 5 22 13 22 17 0 15 -30 8 -50
-12z m58 -67 c5 -18 -28 -29 -38 -12 -5 7 -6 17 -3 22 7 12 35 5 41 -10z"/>
<path d="M653 2470 c-27 -11 -31 -51 -7 -71 12 -10 22 -10 45 -2 16 6 29 8 29
3 0 -22 -14 -40 -30 -40 -11 0 -22 -4 -25 -10 -3 -6 5 -10 19 -10 56 0 72 91
23 125 -24 17 -24 17 -54 5z m42 -36 c0 -12 -8 -20 -22 -22 -17 -3 -23 2 -23
16 0 20 16 33 35 28 6 -2 10 -11 10 -22z"/>
<path d="M143 2329 c-18 -5 -33 -16 -33 -24 0 -17 16 -20 25 -5 3 6 14 10 24
10 15 0 16 -7 11 -55 -6 -57 -4 -69 11 -59 11 6 12 144 2 143 -5 0 -23 -5 -40
-10z"/>
<path d="M472 2109 c-13 -5 -20 -14 -17 -19 5 -8 11 -7 21 1 11 9 18 9 26 1 9
-9 6 -22 -11 -53 -13 -22 -21 -43 -18 -45 8 -8 70 11 74 23 3 7 -4 9 -18 6
-19 -5 -21 -3 -15 13 17 40 18 55 6 69 -14 17 -16 17 -48 4z"/>
<path d="M1067 2002 c-36 -39 -10 -122 38 -122 46 0 58 71 14 85 -11 4 -26 1
-34 -5 -12 -10 -15 -9 -15 8 0 26 17 37 34 23 17 -14 29 -2 15 16 -16 18 -33
16 -52 -5z m49 -67 c4 -8 3 -23 0 -32 -6 -15 -8 -15 -23 -1 -16 17 -12 48 7
48 6 0 13 -7 16 -15z"/>
<path d="M1923 1953 c-23 -9 -14 -24 11 -17 35 8 40 -10 16 -57 -12 -22 -19
-43 -16 -46 9 -9 67 9 73 23 8 22 -7 31 -18 11 -18 -31 -28 -18 -13 18 22 55
-4 88 -53 68z"/>
<path d="M1657 1872 c-35 -38 -11 -101 33 -89 26 7 25 -3 -1 -32 -22 -24 -20
-37 5 -28 42 16 66 116 36 152 -17 20 -53 19 -73 -3z m51 -35 c3 -22 -1 -27
-17 -27 -15 0 -21 6 -21 23 0 46 33 49 38 4z"/>
<path d="M2555 1830 c-3 -5 -18 -10 -31 -10 -16 0 -24 -5 -21 -12 2 -7 14 -12
25 -11 19 2 21 -2 19 -54 -2 -45 1 -58 14 -61 13 -2 16 7 15 50 0 29 3 65 8
81 6 21 5 27 -7 27 -9 0 -19 -4 -22 -10z"/>
<path d="M1407 1788 c-26 -71 -26 -73 11 -70 18 2 32 -1 32 -7 0 -6 7 -11 16
-11 8 0 12 5 9 10 -4 6 -1 17 5 25 10 12 9 15 -2 15 -9 0 -20 17 -27 40 -6 22
-16 40 -20 40 -5 0 -15 -19 -24 -42z m33 -28 c0 -11 -6 -20 -14 -20 -9 0 -12
7 -9 20 3 11 9 20 14 20 5 0 9 -9 9 -20z"/>
<path d="M1472 1528 c-16 -16 -15 -31 2 -25 10 4 18 -8 26 -39 7 -24 17 -44
21 -44 12 0 11 17 -5 69 -14 49 -25 58 -44 39z"/>
<path d="M1548 1298 c-21 -6 -38 -16 -38 -23 0 -22 19 -28 36 -11 22 23 35 20
30 -6 -16 -78 -17 -100 -4 -96 20 7 40 150 21 147 -5 -1 -25 -6 -45 -11z"/>
<path d="M413 1273 c-25 -9 -13 -22 12 -13 34 13 44 -8 14 -31 l-24 -19 28 0
c17 0 27 -5 27 -15 0 -9 -12 -21 -27 -27 -22 -8 -24 -12 -11 -15 27 -7 58 15
58 42 0 13 -5 27 -10 30 -6 4 -10 12 -9 18 4 35 -18 47 -58 30z"/>
<path d="M1278 1209 c-22 -12 -24 -57 -4 -65 12 -5 13 -11 4 -30 -22 -48 41
-75 82 -34 16 16 18 25 10 40 -5 10 -15 22 -20 25 -7 4 -7 12 -1 23 22 38 -28
67 -71 41z m48 -20 c10 -17 -13 -36 -27 -22 -12 12 -4 33 11 33 5 0 12 -5 16
-11z m14 -84 c0 -19 -20 -29 -32 -17 -15 15 -2 43 17 36 8 -3 15 -12 15 -19z"/>
<path d="M2145 1116 c-23 -55 -20 -67 15 -59 19 3 30 1 30 -6 0 -20 17 -12 23
11 4 12 0 26 -8 32 -7 6 -15 20 -17 30 -5 33 -28 29 -43 -8z m35 -27 c0 -5 -7
-9 -15 -9 -9 0 -12 6 -9 15 6 15 24 11 24 -6z"/>
<path d="M1002 1148 c-14 -14 -16 -38 -3 -38 5 0 11 7 15 15 7 20 36 19 36 -1
0 -8 -10 -33 -22 -54 -13 -21 -20 -42 -16 -45 11 -11 81 9 86 24 3 10 -3 11
-27 6 l-31 -7 21 36 c26 45 18 76 -20 76 -15 0 -32 -5 -39 -12z"/>
<path d="M1872 1102 c-27 -8 -30 -28 -3 -24 15 2 17 -2 13 -24 -4 -22 -2 -26
11 -21 18 7 42 -17 32 -33 -4 -7 -19 -9 -38 -4 -28 6 -30 5 -18 -10 16 -19 52
-21 69 -4 18 18 14 56 -8 70 -13 9 -18 19 -14 35 7 24 -1 27 -44 15z"/>
<path d="M2461 978 c-21 -6 -30 -13 -24 -19 5 -5 21 -5 40 0 l30 9 -8 -42 c-5
-22 -11 -51 -14 -63 -4 -15 -1 -23 8 -23 12 0 37 95 37 139 0 13 -22 13 -69
-1z"/>
<path d="M2813 797 c-23 -8 -33 -17 -33 -32 0 -31 16 -49 35 -41 20 7 45 -10
45 -31 0 -19 -30 -29 -40 -12 -11 17 -24 5 -17 -16 10 -24 54 -18 72 9 13 19
14 29 5 45 -11 22 -19 25 -57 21 -32 -2 -30 28 2 36 14 3 25 12 25 20 0 8 -1
13 -2 13 -2 -1 -18 -7 -35 -12z"/>
<path d="M2274 628 c-16 -18 -16 -20 -3 -15 13 4 19 -4 28 -39 6 -25 9 -49 6
-55 -7 -10 28 -13 38 -2 4 3 3 11 -2 17 -4 6 -14 32 -21 59 -16 58 -22 63 -46
35z"/>
<path d="M915 563 c-30 -7 -37 -18 -29 -47 4 -19 13 -26 30 -26 33 0 31 -28
-2 -41 -33 -12 -25 -24 10 -15 43 11 46 72 3 78 -26 4 -30 34 -4 32 9 -1 17 4
17 12 0 8 -1 13 -2 13 -2 -1 -12 -3 -23 -6z"/>
<path d="M1497 437 c-21 -5 -36 -14 -34 -21 3 -6 11 -9 18 -7 8 2 21 6 31 8
14 4 16 -2 11 -56 -4 -40 -2 -61 5 -61 11 0 22 130 12 141 -3 3 -22 2 -43 -4z"/>
<path d="M1206 335 c-19 -44 -13 -57 20 -49 18 5 24 2 24 -9 0 -9 5 -19 11
-23 7 -4 10 4 7 22 -2 24 1 30 20 32 12 2 22 8 22 13 0 6 -11 9 -24 7 -16 -2
-32 5 -45 20 l-20 24 -15 -37z m34 -15 c0 -5 -4 -10 -10 -10 -5 0 -10 5 -10
10 0 6 5 10 10 10 6 0 10 -4 10 -10z"/>
<path d="M708 208 c-24 -37 -28 -57 -18 -83 13 -34 56 -34 72 0 13 29 -3 55
-35 55 -19 0 -19 1 -4 18 19 21 22 32 8 32 -5 0 -15 -10 -23 -22z m40 -65 c6
-19 -28 -29 -39 -12 -5 8 -9 18 -9 22 0 13 43 3 48 -10z"/>
</g>
</svg>
